# xmcd
#
# Track frame offsets:
#	150
#	14027
#	33682
#	52507
#	72680
#	87832
#	106127
#	125770
#	140850
#	159450
#	174530
#	193655
#
# Disc length: 2824 seconds
#
# Revision: 3
# Processed by: cddbd v1.5.2PL0 Copyright (c) Steve Scherf et al.
# Submitted via: EasyCDDAExtractor 12.0.1.1
#
DISCID=ad0b060c
DTITLE=Lucero
DYEAR=1993
DGENRE=Latin
TTITLE0=Pelele
TTITLE1=Veleta
TTITLE2=Si No Podemos Amarnos
TTITLE3=No Te Enamores De Un Perdedor
TTITLE4=Sobrevivire
TTITLE5=Los Parientes Pobres
TTITLE6=Eres
TTITLE7=Amor De Segunda Mano
TTITLE8=Una Mas
TTITLE9=El Numero Uno
TTITLE10=Chico Rico
TTITLE11=Cerca De Ti
EXTD=
EXTT0=
EXTT1=
EXTT2=
EXTT3=
EXTT4=
EXTT5=
EXTT6=
EXTT7=
EXTT8=
EXTT9=
EXTT10=
EXTT11=
PLAYORDER=
